<svg xmlns="http://www.w3.org/2000/svg" xmlns:xlink="http://www.w3.org/1999/xlink" width="500" zoomAndPan="magnify" viewBox="0 0 375 374.999991" height="500" preserveAspectRatio="xMidYMid meet" version="1.0"><defs><clipPath id="5eee32152e"><path d="M 32.488281 41.820312 L 342.238281 41.820312 L 342.238281 351.570312 L 32.488281 351.570312 Z M 32.488281 41.820312 " clip-rule="nonzero"/></clipPath></defs><rect x="-37.5" width="450" fill="#ffffff" y="-37.499999" height="449.999989" fill-opacity="1"/><rect x="-37.5" width="450" fill="#ee008c" y="-37.499999" height="449.999989" fill-opacity="1"/><g clip-path="url(#5eee32152e)"><path fill="#ffffff" d="M 36.167969 117.582031 C 39.09375 78.921875 69.59375 48.421875 108.253906 45.496094 C 134.34375 43.519531 163.710938 41.820312 187.5 41.820312 C 211.289062 41.820312 240.65625 43.519531 266.746094 45.496094 C 305.40625 48.421875 335.90625 78.921875 338.832031 117.582031 C 340.808594 143.671875 342.507812 173.039062 342.507812 196.828125 C 342.507812 220.617188 340.808594 249.984375 338.832031 276.074219 C 335.90625 314.734375 305.40625 345.234375 266.746094 348.160156 C 240.65625 350.136719 211.289062 351.839844 187.5 351.839844 C 163.710938 351.839844 134.34375 350.136719 108.253906 348.160156 C 69.59375 345.234375 39.09375 314.734375 36.167969 276.074219 C 34.191406 249.984375 32.488281 220.617188 32.488281 196.828125 C 32.488281 173.039062 34.191406 143.671875 36.167969 117.582031 Z M 36.167969 117.582031 " fill-opacity="1" fill-rule="nonzero"/></g><path fill="#ee008c" d="M 104.828125 146.839844 C 104.828125 128.789062 119.460938 114.15625 137.511719 114.15625 L 156.738281 114.15625 C 159.921875 114.15625 162.507812 116.738281 162.507812 119.925781 C 162.507812 123.109375 159.921875 125.691406 156.738281 125.691406 L 137.511719 125.691406 C 125.832031 125.691406 116.363281 135.160156 116.363281 146.839844 L 116.363281 166.066406 C 116.363281 169.253906 113.78125 171.835938 110.597656 171.835938 C 107.410156 171.835938 104.828125 169.253906 104.828125 166.066406 Z M 212.492188 119.925781 C 212.492188 116.738281 215.074219 114.15625 218.261719 114.15625 L 237.488281 114.15625 C 255.539062 114.15625 270.171875 128.789062 270.171875 146.839844 L 270.171875 166.066406 C 270.171875 169.253906 267.589844 171.835938 264.40625 171.835938 C 261.21875 171.835938 258.636719 169.253906 258.636719 166.066406 L 258.636719 146.839844 C 258.636719 135.160156 249.167969 125.691406 237.488281 125.691406 L 218.261719 125.691406 C 215.074219 125.691406 212.492188 123.109375 212.492188 119.925781 Z M 110.597656 221.820312 C 113.78125 221.820312 116.363281 224.40625 116.363281 227.589844 L 116.363281 246.816406 C 116.363281 258.496094 125.832031 267.964844 137.511719 267.964844 L 156.738281 267.964844 C 159.921875 267.964844 162.507812 270.546875 162.507812 273.734375 C 162.507812 276.917969 159.921875 279.5 156.738281 279.5 L 137.511719 279.5 C 119.460938 279.5 104.828125 264.867188 104.828125 246.816406 L 104.828125 227.589844 C 104.828125 224.40625 107.410156 221.820312 110.597656 221.820312 Z M 264.40625 221.820312 C 267.589844 221.820312 270.171875 224.40625 270.171875 227.589844 L 270.171875 242.96875 C 270.171875 246.15625 267.589844 248.738281 264.40625 248.738281 C 261.21875 248.738281 258.636719 246.15625 258.636719 242.96875 L 258.636719 227.589844 C 258.636719 224.40625 261.21875 221.820312 264.40625 221.820312 Z M 212.492188 273.734375 C 212.492188 270.546875 215.074219 267.964844 218.261719 267.964844 L 237.488281 267.964844 C 240.671875 267.964844 243.253906 270.546875 243.253906 273.734375 C 243.253906 276.917969 240.671875 279.5 237.488281 279.5 L 218.261719 279.5 C 215.074219 279.5 212.492188 276.917969 212.492188 273.734375 Z M 212.492188 273.734375 " fill-opacity="1" fill-rule="evenodd"/><path fill="#ee008c" d="M 124.054688 154.53125 C 124.054688 142.851562 133.519531 133.382812 145.203125 133.382812 L 160.582031 133.382812 C 172.261719 133.382812 181.730469 142.851562 181.730469 154.53125 L 181.730469 169.910156 C 181.730469 181.59375 172.261719 191.0625 160.582031 191.0625 L 145.203125 191.0625 C 133.519531 191.0625 124.054688 181.59375 124.054688 169.910156 Z M 145.203125 144.917969 C 139.890625 144.917969 135.589844 149.222656 135.589844 154.53125 L 135.589844 169.910156 C 135.589844 175.222656 139.890625 179.523438 145.203125 179.523438 L 160.582031 179.523438 C 165.890625 179.523438 170.195312 175.222656 170.195312 169.910156 L 170.195312 154.53125 C 170.195312 149.222656 165.890625 144.917969 160.582031 144.917969 Z M 145.203125 144.917969 " fill-opacity="1" fill-rule="evenodd"/><path fill="#ee008c" d="M 124.054688 223.746094 C 124.054688 212.066406 133.519531 202.597656 145.203125 202.597656 L 160.582031 202.597656 C 172.261719 202.597656 181.730469 212.066406 181.730469 223.746094 L 181.730469 239.125 C 181.730469 250.804688 172.261719 260.273438 160.582031 260.273438 L 145.203125 260.273438 C 133.519531 260.273438 124.054688 250.804688 124.054688 239.125 Z M 145.203125 214.132812 C 139.890625 214.132812 135.589844 218.4375 135.589844 223.746094 L 135.589844 239.125 C 135.589844 244.433594 139.890625 248.738281 145.203125 248.738281 L 160.582031 248.738281 C 165.890625 248.738281 170.195312 244.433594 170.195312 239.125 L 170.195312 223.746094 C 170.195312 218.4375 165.890625 214.132812 160.582031 214.132812 Z M 145.203125 214.132812 " fill-opacity="1" fill-rule="evenodd"/><path fill="#ee008c" d="M 193.273438 154.53125 C 193.273438 142.851562 202.742188 133.382812 214.421875 133.382812 L 229.800781 133.382812 C 241.480469 133.382812 250.949219 142.851562 250.949219 154.53125 L 250.949219 169.910156 C 250.949219 181.59375 241.480469 191.0625 229.800781 191.0625 L 214.421875 191.0625 C 202.742188 191.0625 193.273438 181.59375 193.273438 169.910156 Z M 214.421875 144.917969 C 209.113281 144.917969 204.808594 149.222656 204.808594 154.53125 L 204.808594 169.910156 C 204.808594 175.222656 209.113281 179.523438 214.421875 179.523438 L 229.800781 179.523438 C 235.109375 179.523438 239.414062 175.222656 239.414062 169.910156 L 239.414062 154.53125 C 239.414062 149.222656 235.109375 144.917969 229.800781 144.917969 Z M 214.421875 144.917969 " fill-opacity="1" fill-rule="evenodd"/><path fill="#ee008c" d="M 193.273438 223.746094 C 193.273438 212.066406 202.742188 202.597656 214.421875 202.597656 L 229.800781 202.597656 C 241.480469 202.597656 250.949219 212.066406 250.949219 223.746094 L 250.949219 239.125 C 250.949219 250.804688 241.480469 260.273438 229.800781 260.273438 L 214.421875 260.273438 C 202.742188 260.273438 193.273438 250.804688 193.273438 239.125 Z M 214.421875 214.132812 C 209.113281 214.132812 204.808594 218.4375 204.808594 223.746094 L 204.808594 239.125 C 204.808594 244.433594 209.113281 248.738281 214.421875 248.738281 L 229.800781 248.738281 C 235.109375 248.738281 239.414062 244.433594 239.414062 239.125 L 239.414062 223.746094 C 239.414062 218.4375 235.109375 214.132812 229.800781 214.132812 Z M 214.421875 214.132812 " fill-opacity="1" fill-rule="evenodd"/></svg>